<?xml version="1.0" encoding="utf-8"?>
<!-- Generator: Adobe Illustrator 21.0.0, SVG Export Plug-In . SVG Version: 6.00 Build 0)  -->
<svg version="1.1" id="Слой_1" xmlns="http://www.w3.org/2000/svg" xmlns:xlink="http://www.w3.org/1999/xlink" x="0px" y="0px"
	 viewBox="0 0 630 149" style="enable-background:new 0 0 630 149;" xml:space="preserve">
<style type="text/css">
	.st0{fill:none;}
	.st1{font-family:'SourceSansPro-Regular';}
	.st2{font-size:21.172px;}
	.st3{letter-spacing:20;}
</style>
<g>
	<polygon points="146.2,1.2 0,37.8 47.6,88.6 53.2,69.6 34,48.5 34.4,47.1 121,25 120.9,25.5 94.8,113.5 77.7,95.6 89.4,56.1 
		70.8,61.2 59,100.4 102.6,147.5 	"/>
	<path d="M205.6,147.8h18.9l-21.6-73.2h-19.2L162,147.8h18.9l4.3-15.7h16L205.6,147.8z M197.7,119.3h-9l4.5-16.2L197.7,119.3z"/>
	<path d="M599,147.8h-34.1l-4.9-16.2c0,0,35.5,0,35.5,0c0.5,0,1-0.3,1.3-0.7c0,0,0.1-0.1,0.1-0.1c0.8-1.3,0.3-3.3-1-4.2
		c0,0-28.3-17.9-29.5-18.9h0l-7.1-4.5c0,0-3.5-2.1-6.1-5.1c-1.1-1.3-1.9-2.7-2.4-4.3l-0.8-2.5l-4.9-16.5l45.3,0l5,16.6h-15.8
		c0,0-2.8-0.1-2.8,1.9v2l27.4,17.3c0,0,5.1,2.6,8,7.4c1,1.7,1.5,3.6,1.5,5.6v5.6c0,0,0.4,3.8-0.8,6.3
		C611.9,139.7,609.1,147.2,599,147.8"/>
	<polygon points="293.2,131.6 293.2,119.4 314.6,119.4 309.7,102.8 293.2,102.8 293.2,91.1 330.4,91.1 325.4,74.6 293.2,74.6 
		276.7,74.6 261.8,74.6 266.7,91.1 276.7,91.1 276.7,119.4 285.2,147.8 292.1,147.8 292.1,147.8 330.4,147.8 325.8,131.6 	"/>
	<polygon points="502.9,131.2 502.9,131.2 497.9,131.2 497.9,103 489.4,74.6 466.5,74.6 471.5,91.1 481.4,91.1 481.4,119.4 
		489.9,147.8 497.9,147.8 497.9,147.8 507.8,147.8 	"/>
	<path d="M411.5,122.6c0.6,0.1,10.3-5.6,10.3-15s0-16.4,0-16.4s-1.1-16.5-20.7-16.5c-19.6,0-33.4,0-33.4,0v44.8l8.5,28.4h8v-23.1
		h9.2l16.2,23.1h19.7C429.2,147.8,410.9,122.5,411.5,122.6z M405.1,98.2v3.2c0,7-6.7,6.7-6.7,6.7h-14.2V90.9h13.5
		C405.3,90.9,405.1,98.2,405.1,98.2z"/>
	<rect x="182.6" y="34.2" class="st0" width="436.7" height="15.9"/>
	<text transform="matrix(1 0 0 1 182.5794 49.2705)" class="st1 st2 st3">DIGITAL ARTIST</text>
	<polygon points="515.3,1.2 568.4,1.2 573.4,17.7 499.3,17.7 	"/>
	<polygon points="146.2,1.2 0,37.8 47.6,88.6 53.2,69.6 34,48.5 34.4,47.1 121,25 120.9,25.5 94.8,113.5 77.7,95.6 89.4,56.1 
		70.8,61.2 59,100.4 102.6,147.5 	"/>
	<path d="M205.6,147.8h18.9l-21.6-73.2h-19.2L162,147.8h18.9l4.3-15.7h16L205.6,147.8z M197.7,119.3h-9l4.5-16.2L197.7,119.3z"/>
	<path d="M599,147.8h-34.1l-4.9-16.2c0,0,35.5,0,35.5,0c0.5,0,1-0.3,1.3-0.7c0,0,0.1-0.1,0.1-0.1c0.8-1.3,0.3-3.3-1-4.2
		c0,0-28.3-17.9-29.5-18.9h0l-7.1-4.5c0,0-3.5-2.1-6.1-5.1c-1.1-1.3-1.9-2.7-2.4-4.3l-0.8-2.5l-4.9-16.5l45.3,0l5,16.6h-15.8
		c0,0-2.8-0.1-2.8,1.9v2l27.4,17.3c0,0,5.1,2.6,8,7.4c1,1.7,1.5,3.6,1.5,5.6v5.6c0,0,0.4,3.8-0.8,6.3
		C611.9,139.7,609.1,147.2,599,147.8"/>
	<polygon points="293.2,131.6 293.2,119.4 314.6,119.4 309.7,102.8 293.2,102.8 293.2,91.1 330.4,91.1 325.4,74.6 293.2,74.6 
		276.7,74.6 261.8,74.6 266.7,91.1 276.7,91.1 276.7,119.4 285.2,147.8 292.1,147.8 292.1,147.8 330.4,147.8 325.8,131.6 	"/>
	<polygon points="502.9,131.2 502.9,131.2 497.9,131.2 497.9,103 489.4,74.6 466.5,74.6 471.5,91.1 481.4,91.1 481.4,119.4 
		489.9,147.8 497.9,147.8 497.9,147.8 507.8,147.8 	"/>
	<path d="M411.5,122.6c0.6,0.1,10.3-5.6,10.3-15s0-16.4,0-16.4s-1.1-16.5-20.7-16.5c-19.6,0-33.4,0-33.4,0v44.8l8.5,28.4h8v-23.1
		h9.2l16.2,23.1h19.7C429.2,147.8,410.9,122.5,411.5,122.6z M405.1,98.2v3.2c0,7-6.7,6.7-6.7,6.7h-14.2V90.9h13.5
		C405.3,90.9,405.1,98.2,405.1,98.2z"/>
	<rect x="182.6" y="34.2" class="st0" width="436.7" height="15.9"/>
	<text transform="matrix(1 0 0 1 182.5794 49.2705)" class="st1 st2 st3">DIGITAL ARTIST</text>
	<polygon points="515.3,1.2 568.4,1.2 573.4,17.7 499.3,17.7 	"/>
</g>
</svg>
